<?xml version="1.0" encoding="UTF-8" standalone="no"?>
<!-- Created with Inkscape (http://www.inkscape.org/) -->

<svg
   xmlns:dc="http://purl.org/dc/elements/1.1/"
   xmlns:cc="http://creativecommons.org/ns#"
   xmlns:rdf="http://www.w3.org/1999/02/22-rdf-syntax-ns#"
   xmlns:svg="http://www.w3.org/2000/svg"
   xmlns="http://www.w3.org/2000/svg"
   xmlns:sodipodi="http://sodipodi.sourceforge.net/DTD/sodipodi-0.dtd"
   xmlns:inkscape="http://www.inkscape.org/namespaces/inkscape"
   version="1.1"
   id="svg2"
   xml:space="preserve"
   width="986.66669"
   height="986.66669"
   viewBox="0 0 986.66669 986.66669"
   sodipodi:docname="Harp.svg"
   inkscape:version="0.92.3 (2405546, 2018-03-11)"
   inkscape:export-filename="C:\Users\gonca\Documents\Projects\github\bonsai-rx\harp\Resources\Harp.png"
   inkscape:export-xdpi="12.454054"
   inkscape:export-ydpi="12.454054"><metadata
     id="metadata8"><rdf:RDF><cc:Work
         rdf:about=""><dc:format>image/svg+xml</dc:format><dc:type
           rdf:resource="http://purl.org/dc/dcmitype/StillImage" /><dc:title /></cc:Work></rdf:RDF></metadata><defs
     id="defs6" /><sodipodi:namedview
     pagecolor="#ffffff"
     bordercolor="#666666"
     borderopacity="1"
     objecttolerance="10"
     gridtolerance="10"
     guidetolerance="10"
     inkscape:pageopacity="0"
     inkscape:pageshadow="2"
     inkscape:window-width="1920"
     inkscape:window-height="1001"
     id="namedview4"
     showgrid="false"
     inkscape:zoom="0.47837837"
     inkscape:cx="631.29945"
     inkscape:cy="493.33334"
     inkscape:window-x="-9"
     inkscape:window-y="-9"
     inkscape:window-maximized="1"
     inkscape:current-layer="g10" /><g
     id="g10"
     inkscape:groupmode="layer"
     inkscape:label="HarpLogoSmall"
     transform="matrix(1.3333333,0,0,-1.3333333,0,986.66667)"><path
       style="fill:#029fe3;fill-opacity:1;fill-rule:nonzero;stroke:none;stroke-width:1.33333325"
       d="M 5.3339844 258.66602 L 5.3339844 273.33398 L 5.3339844 302.66602 L 5.3339844 368 L 5.3339844 590.66602 L 77.333984 590.66602 L 77.333984 508 L 77.333984 489.33398 L 77.333984 484 L 77.333984 481.33398 L 77.333984 478.66602 L 77.628906 477.33398 L 77.851562 476 L 78.371094 473.33398 L 78.666016 470.66602 L 78.962891 468 L 79.222656 466.66602 L 80 464 L 80.443359 462.66602 L 81.333984 460 L 81.888672 458.66602 L 83.222656 456 L 84 454.66602 L 85.888672 452 L 88 449.33398 L 89.333984 448.03711 L 92 445.66602 L 93.333984 444.62891 L 94.666016 444 L 97.333984 442.37109 L 98.666016 441.66602 L 101.33398 440.51953 L 104 439.5918 L 106.66602 438.92578 L 108 438.66602 L 110.66602 438.14844 L 112 437.85156 L 114.66602 437.55664 L 117.33398 437.85156 L 118.66602 438.14844 L 120 438.37109 L 121.33398 438.66602 L 122.66602 438.74219 L 125.33398 439.22266 L 126.66602 439.5918 L 129.33398 440.55664 L 132 441.88867 L 134.66602 443.5918 L 137.33398 445.62891 L 139.88867 448.03711 L 142.03711 450.66602 L 142.66602 452 L 143.62891 453.33398 L 144.81445 456 L 145.74219 458.66602 L 146.14844 460 L 146.48047 461.33398 L 147.14844 464 L 147.48047 465.33398 L 147.88867 468 L 147.96289 469.33398 L 148 472 L 148 473.33398 L 148 477.33398 L 148 490.66602 L 148 590.66602 L 221.33398 590.66602 L 221.33398 488 L 221.33398 461.33398 L 221.33398 453.33398 L 221.33398 450.66602 L 221.29688 449.33398 L 221.22266 448 L 220.81445 445.33398 L 220.51953 444 L 220 441.33398 L 219.92578 440 L 219.48047 437.33398 L 218.66602 434.66602 L 218.48047 433.33398 L 218.14844 432 L 217.33398 429.33398 L 216.88867 428 L 216 425.33398 L 215.11133 422.66602 L 214.62891 421.33398 L 214.14844 420 L 212.96289 417.33398 L 212.22266 416 L 211.48047 414.66602 L 210.62891 413.33398 L 208.81445 410.66602 L 207.81445 409.33398 L 205.81445 406.66602 L 204.81445 405.33398 L 202.55664 402.66602 L 200 400.11133 L 197.33398 397.85156 L 196 396.85156 L 193.33398 394.85156 L 192 393.85156 L 190.66602 392.92578 L 188 391.18555 L 186.66602 390.44336 L 185.33398 389.70312 L 184 389.11133 L 181.33398 388 L 180 387.48047 L 177.33398 386.4082 L 176 385.85156 L 173.33398 384.88867 L 170.66602 384 L 168 383.22266 L 165.33398 382.66602 L 162.66602 382.14844 L 160 381.62891 L 158.66602 381.44336 L 156 381.33398 L 153.33398 381.33398 L 150.66602 381.33398 L 148 380.81445 L 145.33398 380.4082 L 142.66602 380.55664 L 140 381.03711 L 137.33398 381.33398 L 134.66602 381.33398 L 132 381.33398 L 130.66602 381.33398 L 128 381.44336 L 125.33398 381.85156 L 124 382.18555 L 121.33398 382.85156 L 120 383.14844 L 118.66602 383.51953 L 117.33398 384 L 114.66602 384.51953 L 112 385.37109 L 110.66602 385.85156 L 108 387 L 106.66602 387.70312 L 105.33398 388.29688 L 104 389.03711 L 102.66602 389.62891 L 101.33398 390.37109 L 100 391 L 97.333984 392.51953 L 96 393.37109 L 93.333984 395.22266 L 90.666016 397.44336 L 88 400 L 85.333984 402.66602 L 82.666016 405.33398 L 77.333984 410.66602 L 77.333984 269.33398 L 77.333984 258.66602 L 74.591797 258.66602 L 5.3339844 258.66602 z M 361.33398 378.66602 L 358.66602 378.77734 L 357.33398 378.96289 L 356 379.18555 L 353.33398 379.70312 L 352 380 L 349.33398 380.11133 L 346.66602 380.51953 L 344 381.07422 L 341.33398 381.5918 L 340 381.88867 L 337.33398 382.66602 L 336 383.11133 L 333.33398 384 L 330.66602 384.88867 L 329.33398 385.37109 L 328 385.85156 L 325.33398 386.92578 L 324 387.51953 L 322.66602 388.07422 L 320 389.4082 L 318.66602 390.18555 L 317.33398 390.88867 L 316 391.66602 L 314.66602 392.33398 L 312 393.85156 L 309.33398 395.5918 L 306.66602 397.51953 L 305.33398 398.66602 L 302.66602 400.51953 L 301.33398 401.62891 L 298.66602 404 L 297.33398 405.33398 L 294.66602 407.48047 L 292 409.62891 L 290.96289 410.77734 L 289.85156 412.03711 L 288.81445 413.33398 L 286.5918 416 L 285.33398 417.33398 L 283.22266 420 L 282.25781 421.33398 L 280.44336 424 L 278.66602 426.66602 L 277.85156 428 L 276.33398 430.66602 L 275.70312 432 L 274.37109 434.66602 L 273.62891 436 L 273.03711 437.33398 L 272.33398 438.66602 L 271.18555 441.33398 L 270.66602 442.66602 L 270.22266 444 L 269.33398 446.66602 L 268.44336 449.33398 L 268 450.66602 L 267.18555 453.33398 L 266.66602 454.66602 L 266.14844 457.33398 L 265.74219 458.66602 L 264.92578 461.33398 L 264.55664 462.66602 L 264 465.33398 L 263.88867 468 L 263.70312 469.33398 L 263.18555 472 L 262.66602 474.66602 L 262.66602 476 L 262.66602 477.33398 L 262.66602 480 L 262.66602 486.66602 L 262.66602 494.66602 L 262.66602 497.33398 L 262.66602 498.66602 L 262.66602 500 L 263.18555 502.66602 L 263.48047 504 L 263.74219 505.33398 L 264.25781 508 L 264.51953 509.33398 L 264.81445 510.66602 L 265.25781 513.33398 L 265.33398 514.66602 L 265.85156 517.33398 L 266.18555 518.66602 L 266.48047 520 L 267.18555 522.66602 L 267.5918 524 L 268 525.33398 L 268.88867 528 L 269.77734 530.66602 L 270.22266 532 L 270.66602 533.33398 L 271.18555 534.66602 L 272.33398 537.33398 L 273.03711 538.66602 L 274.37109 541.33398 L 275 542.66602 L 275.77734 544 L 276.51953 545.33398 L 278.22266 548 L 280 550.66602 L 280.92578 552 L 281.85156 553.33398 L 282.66602 554.66602 L 283.81445 556 L 285.85156 558.66602 L 288 561.33398 L 289.33398 562.66602 L 290.66602 564 L 293.33398 566.66602 L 296 569.33398 L 297.33398 570.66602 L 298.66602 572 L 301.33398 574.14844 L 302.66602 575.14844 L 305.33398 577.33398 L 306.66602 578.14844 L 309.33398 580 L 312 581.77734 L 314.66602 583.48047 L 317.33398 585 L 318.66602 585.62891 L 321.33398 586.96289 L 324 588.29688 L 325.33398 589 L 328 590.14844 L 329.33398 590.66602 L 330.66602 591.11133 L 333.33398 592 L 336 592.88867 L 337.33398 593.33398 L 340 594.11133 L 341.33398 594.4082 L 344 594.92578 L 346.66602 595.48047 L 349.33398 596 L 352 596.11133 L 353.33398 596.29688 L 356 596.81445 L 357.33398 597.03711 L 358.66602 597.33398 L 361.33398 597.33398 L 362.66602 597.33398 L 364 597.33398 L 366.66602 597.33398 L 369.33398 597.33398 L 370.66602 597.33398 L 373.33398 597.33398 L 376 596.81445 L 377.33398 596.51953 L 380 596.07422 L 381.33398 596 L 384 595.48047 L 386.66602 594.92578 L 389.33398 594.4082 L 390.66602 594.11133 L 393.33398 593.33398 L 394.66602 592.88867 L 396 592.44336 L 398.66602 591.48047 L 400 590.92578 L 402.66602 589.85156 L 405.33398 588.77734 L 406.66602 588.14844 L 409.33398 586.66602 L 410.66602 585.85156 L 413.33398 584.22266 L 414.66602 583.37109 L 417.33398 581.33398 L 420 578.66602 L 421.33398 577.33398 L 424 574.66602 L 429.33398 569.33398 L 429.33398 590.66602 L 502.66602 590.66602 L 502.66602 385.33398 L 429.33398 385.33398 L 429.33398 405.33398 L 427.37109 403.11133 L 425.22266 401.03711 L 423.96289 400 L 421.33398 397.44336 L 418.66602 395.18555 L 417.33398 394.18555 L 414.66602 392.22266 L 413.33398 391.25781 L 410.66602 389.66602 L 409.33398 389.03711 L 406.66602 387.70312 L 405.33398 387 L 402.66602 385.85156 L 401.33398 385.37109 L 400 384.88867 L 397.33398 384 L 394.66602 383.18555 L 392 382.66602 L 390.66602 382.14844 L 389.33398 381.74219 L 386.66602 380.92578 L 385.33398 380.55664 L 382.66602 380.07422 L 381.33398 380 L 378.66602 379.48047 L 377.33398 379.18555 L 374.66602 378.77734 L 373.33398 378.70312 L 370.66602 378.66602 L 369.33398 378.66602 L 366.66602 378.66602 L 364 378.66602 L 362.66602 378.66602 L 361.33398 378.66602 z M 868 378.66602 L 865.33398 378.70312 L 864 378.77734 L 861.33398 379.18555 L 860 379.51953 L 858.66602 380 L 857.33398 380.18555 L 854.66602 380.81445 L 853.33398 381.07422 L 852 381.33398 L 849.33398 381.88867 L 846.66602 382.66602 L 845.33398 383.11133 L 842.66602 384.03711 L 841.33398 384.51953 L 838.66602 385.66602 L 837.33398 386.37109 L 834.66602 387.70312 L 833.33398 388.29688 L 832 389.03711 L 830.66602 389.66602 L 828 391.18555 L 826.66602 392.03711 L 824 393.88867 L 821.33398 396.11133 L 820 397.37109 L 817.33398 400 L 816 401.33398 L 813.77734 404 L 812.48047 406 L 812 408 L 811.03711 406 L 811 405.33398 L 810.66602 404 L 810.66602 402.66602 L 810.66602 401.33398 L 810.66602 400 L 810.66602 397.33398 L 810.66602 385.33398 L 797.33398 385.33398 L 776 385.33398 L 769.33398 385.33398 L 760 385.33398 L 749.33398 385.33398 L 737.33398 385.33398 L 737.33398 392 L 737.33398 402.66602 L 737.33398 693.33398 L 758.66602 693.33398 L 768 693.33398 L 792 693.33398 L 793.33398 693.33398 L 800 693.33398 L 810.66602 693.33398 L 810.66602 690.66602 L 810.66602 689.33398 L 810.66602 682.66602 L 810.66602 570.66602 L 813.33398 573.4082 L 814.66602 574.74219 L 817.33398 577.33398 L 818.66602 578.66602 L 821.33398 580.81445 L 822.66602 581.81445 L 824 582.85156 L 826.66602 584.74219 L 829.33398 586.33398 L 830.66602 586.96289 L 833.33398 588.29688 L 834.66602 589 L 837.33398 590.14844 L 838.66602 590.66602 L 840 591.11133 L 841.33398 591.55664 L 844 592.44336 L 848 593.77734 L 849.33398 594.22266 L 852 595.07422 L 853.33398 595.44336 L 856 596 L 857.33398 596.07422 L 858.66602 596.29688 L 860 596.51953 L 861.33398 596.81445 L 864 597.33398 L 865.33398 597.33398 L 868 597.33398 L 869.33398 597.33398 L 872 597.33398 L 876 597.33398 L 877.33398 597.33398 L 880 597.33398 L 881.33398 597.33398 L 884 596.81445 L 885.33398 596.51953 L 888 596.11133 L 889.33398 596.03711 L 892 596 L 893.33398 595.70312 L 894.66602 595.48047 L 897.33398 594.92578 L 900 594.4082 L 901.33398 594.11133 L 902.66602 593.74219 L 905.33398 592.88867 L 906.66602 592.44336 L 909.33398 591.48047 L 910.66602 590.92578 L 913.33398 589.85156 L 916 588.81445 L 917.33398 588.22266 L 918.66602 587.66602 L 920 586.96289 L 921.33398 586.33398 L 924 584.81445 L 925.33398 584 L 926.66602 583.11133 L 928 582.22266 L 930.66602 580.44336 L 933.33398 578.66602 L 934.66602 577.74219 L 936 576.77734 L 938.66602 574.66602 L 941.33398 572.51953 L 942.66602 571.48047 L 945.33398 569.33398 L 947.88867 566.66602 L 950.14844 564 L 951.18555 562.66602 L 953.33398 560 L 954.5918 558.66602 L 956.77734 556 L 957.74219 554.66602 L 959.55664 552 L 961.29688 549.33398 L 962.14844 548 L 963.66602 545.33398 L 964.29688 544 L 965.62891 541.33398 L 966.96289 538.66602 L 967.66602 537.33398 L 968.22266 536 L 968.81445 534.66602 L 969.85156 532 L 970.88867 529.33398 L 971.4082 528 L 971.77734 526.66602 L 972.51953 524 L 972.92578 522.66602 L 973.74219 520 L 974.14844 518.66602 L 974.66602 516 L 975.14844 514.66602 L 975.48047 513.33398 L 975.88867 510.66602 L 976 508 L 976 506.66602 L 976.51953 504 L 976.81445 502.66602 L 977.22266 500 L 977.29688 498.66602 L 977.33398 497.33398 L 977.33398 494.66602 L 977.33398 488 L 977.33398 484 L 977.33398 481.33398 L 977.29688 478.66602 L 977.22266 477.33398 L 976.81445 474.66602 L 976.29688 472 L 976 470.66602 L 975.88867 468 L 975.70312 466.66602 L 975.48047 465.33398 L 974.92578 462.66602 L 974.4082 460 L 974.14844 458.66602 L 973.81445 457.33398 L 973.33398 456 L 972.81445 453.33398 L 972.4082 452 L 972 450.66602 L 971.11133 448 L 970.62891 446.66602 L 970.14844 445.33398 L 969.5918 444 L 968.51953 441.33398 L 967.48047 438.66602 L 966.88867 437.33398 L 966.29688 436 L 965.55664 434.66602 L 964 432 L 963.18555 430.66602 L 961.5918 428 L 960.81445 426.66602 L 959.07422 424 L 957.14844 421.33398 L 956 420 L 955.14844 418.66602 L 954.14844 417.33398 L 951.88867 414.66602 L 950.62891 413.33398 L 948 410.66602 L 946.66602 409.33398 L 945.33398 408 L 942.66602 405.44336 L 941.33398 404.29688 L 940 403.18555 L 937.33398 401.07422 L 934.66602 398.92578 L 933.33398 397.88867 L 932 396.92578 L 929.33398 395.18555 L 928 394.4082 L 925.33398 392.81445 L 922.66602 391.18555 L 921.33398 390.44336 L 920 389.66602 L 918.66602 389.03711 L 917.33398 388.33398 L 916 387.77734 L 914.66602 387.18555 L 912 386.14844 L 909.33398 385.07422 L 908 384.51953 L 906.66602 384.03711 L 904 383.18555 L 902.66602 382.85156 L 900 382.18555 L 898.66602 381.81445 L 897.33398 381.51953 L 894.66602 380.85156 L 893.33398 380.51953 L 890.66602 380.11133 L 888 380 L 886.66602 379.70312 L 884 379.18555 L 882.66602 378.96289 L 881.33398 378.77734 L 878.66602 378.66602 L 877.33398 378.66602 L 876 378.66602 L 872 378.66602 L 869.33398 378.66602 L 868 378.66602 z M 685.33398 382.66602 L 682.66602 382.70312 L 681.33398 382.77734 L 678.66602 383.18555 L 677.33398 383.48047 L 674.66602 384 L 672 384.11133 L 669.33398 384.55664 L 666.66602 385.33398 L 665.33398 385.77734 L 662.66602 386.66602 L 660 387.55664 L 658.66602 388.03711 L 657.33398 388.51953 L 656 389.11133 L 654.66602 389.66602 L 653.33398 390.37109 L 652 391 L 649.33398 392.51953 L 646.66602 394.25781 L 645.33398 395.22266 L 642.66602 397.33398 L 640 399.48047 L 638.66602 400.51953 L 637.33398 401.62891 L 636.29688 402.77734 L 635.18555 404.03711 L 633.07422 406.66602 L 630.92578 409.33398 L 629.88867 410.66602 L 628.92578 412 L 627.22266 414.66602 L 626.51953 416 L 626.03711 416.66602 L 625.33398 418.66602 L 624.37109 416.66602 L 624.33398 416 L 624 414.66602 L 624 413.33398 L 624 412 L 624 409.33398 L 624 405.33398 L 624 385.33398 L 605.33398 385.33398 L 552 385.33398 L 552 590.66602 L 624 590.66602 L 624 524 L 624 509.33398 L 624 506.66602 L 624 505.33398 L 624 502.66602 L 624 501.33398 L 624.51953 498.66602 L 624.81445 497.33398 L 625.22266 494.66602 L 625.29688 493.33398 L 625.33398 492 L 625.33398 489.33398 L 625.33398 488 L 625.85156 485.33398 L 626.14844 484 L 626.4082 482.66602 L 626.92578 480 L 627.22266 478.66602 L 627.5918 477.33398 L 628.51953 474.66602 L 629.11133 473.33398 L 629.66602 472 L 630.37109 470.66602 L 631 469.33398 L 632.51953 466.66602 L 634.25781 464 L 635.22266 462.66602 L 636.29688 461.33398 L 637.33398 460 L 640 457.33398 L 642.66602 454.77734 L 644 453.66602 L 645.33398 452.62891 L 648 451 L 649.33398 450.37109 L 650.66602 449.66602 L 652 449.11133 L 653.33398 448.51953 L 656 447.5918 L 657.33398 447.22266 L 658.66602 446.92578 L 661.33398 446.4082 L 662.66602 446.14844 L 664 445.85156 L 666.66602 445.44336 L 668 445.37109 L 669.33398 445.33398 L 672 445.33398 L 676 445.33398 L 678.66602 445.33398 L 681.33398 445.44336 L 684 445.85156 L 685.33398 446.14844 L 688 446.66602 L 690.66602 447.18555 L 693.33398 448 L 694.66602 448.22266 L 696 448.5918 L 697.33398 449.11133 L 700 450.14844 L 702.5918 451.11133 L 703.33398 451.4082 L 705.33398 452 L 705.33398 450 L 705.33398 382.66602 L 690.66602 382.66602 L 686.66602 382.66602 L 685.33398 382.66602 z M 384 441.33398 L 385.33398 441.37109 L 386.66602 441.44336 L 389.33398 441.85156 L 390.66602 442.14844 L 393.33398 442.66602 L 394.66602 442.74219 L 397.33398 443.18555 L 400 444 L 401.33398 444.22266 L 402.66602 444.5918 L 404 445.33398 L 405.33398 445.70312 L 408 447.18555 L 410.66602 448.92578 L 412 449.85156 L 413.33398 450.85156 L 415.96289 452.85156 L 417.22266 453.85156 L 419.48047 456.11133 L 421.5918 458.66602 L 423.70312 461.33398 L 424.70312 462.66602 L 426.33398 465.33398 L 426.96289 466.66602 L 427.66602 468 L 428 469.33398 L 428.74219 470.66602 L 429.33398 473.33398 L 429.81445 474.66602 L 430.14844 476 L 430.4082 477.33398 L 430.92578 480 L 431.48047 482.66602 L 431.88867 485.33398 L 431.96289 488 L 431.88867 489.33398 L 431.48047 492 L 431.18555 493.33398 L 430.66602 496 L 430.5918 497.33398 L 430.14844 500 L 429.33398 502.66602 L 429.11133 504 L 428.74219 505.33398 L 428 506.66602 L 427.66602 508 L 426.96289 509.33398 L 426.33398 510.66602 L 424.74219 513.33398 L 423.77734 514.66602 L 421.81445 517.33398 L 420.81445 518.66602 L 418.55664 521.33398 L 416 523.48047 L 414.66602 524.48047 L 413.33398 525.51953 L 410.66602 527.4082 L 409.33398 528.18555 L 408 529 L 406.66602 529.62891 L 405.33398 530.33398 L 402.66602 531.4082 L 401.33398 531.77734 L 400 532.18555 L 397.33398 532.81445 L 394.66602 533.33398 L 392 533.62891 L 389.33398 534.14844 L 386.66602 534.66602 L 384 534.66602 L 381.33398 534.66602 L 378.66602 534.14844 L 376 533.5918 L 374.66602 533.33398 L 372 532.77734 L 370.66602 532.4082 L 368 531.55664 L 366.66602 531.11133 L 364 530.11133 L 361.33398 528.77734 L 360 528 L 357.33398 526.11133 L 354.66602 524 L 353.33398 522.66602 L 350.66602 520 L 348.55664 517.33398 L 347.5918 516 L 345.85156 513.33398 L 345.11133 512 L 344.33398 510.66602 L 343.70312 509.33398 L 342.37109 506.66602 L 341.66602 505.33398 L 340.5918 502.66602 L 339.81445 500 L 339.51953 498.66602 L 339.18555 497.33398 L 338.66602 494.66602 L 338.66602 492 L 338.66602 490.66602 L 338.66602 488 L 338.66602 485.33398 L 338.66602 484 L 338.66602 481.33398 L 339.18555 478.66602 L 339.51953 477.33398 L 339.81445 476 L 340.5918 473.33398 L 341.66602 470.66602 L 342.37109 469.33398 L 343.70312 466.66602 L 344.33398 465.33398 L 345.85156 462.66602 L 346.66602 461.33398 L 348.55664 458.66602 L 350.66602 456 L 352 454.66602 L 354.66602 452.11133 L 357.33398 449.88867 L 358.66602 448.92578 L 361.33398 447.22266 L 362.66602 446.66602 L 364 445.88867 L 366.66602 444.88867 L 368 444.44336 L 370.66602 443.5918 L 372 443.22266 L 373.33398 442.92578 L 376 442.4082 L 378.66602 441.85156 L 381.33398 441.44336 L 384 441.33398 z M 854.66602 441.33398 L 856 441.33398 L 858.66602 441.44336 L 861.33398 441.85156 L 862.66602 442.14844 L 864 442.37109 L 866.66602 442.74219 L 868 442.96289 L 869.33398 443.22266 L 870.66602 443.5918 L 873.33398 444.51953 L 876 445.70312 L 877.33398 446.44336 L 880 448.03711 L 882.66602 449.88867 L 885.33398 452.11133 L 888 454.66602 L 890.55664 457.33398 L 891.70312 458.66602 L 892.77734 460 L 893.74219 461.33398 L 895.48047 464 L 896.22266 465.33398 L 896.96289 466.66602 L 897.55664 468 L 898.14844 469.33398 L 899.07422 472 L 899.48047 473.33398 L 899.81445 474.66602 L 900.48047 477.33398 L 900.81445 478.66602 L 901.22266 481.33398 L 901.29688 482.66602 L 901.33398 485.33398 L 901.33398 488 L 901.33398 490.66602 L 901.29688 493.33398 L 901.22266 494.66602 L 900.81445 497.33398 L 900.48047 498.66602 L 899.81445 501.33398 L 899.48047 502.66602 L 899.07422 504 L 898.14844 506.66602 L 897.55664 508 L 896.96289 509.33398 L 896.22266 510.66602 L 895.48047 512 L 893.74219 514.66602 L 892.77734 516 L 891.70312 517.33398 L 890.55664 518.66602 L 888 521.33398 L 885.33398 524 L 884 525.33398 L 881.33398 527.37109 L 880 528.18555 L 877.33398 529.62891 L 876 530.33398 L 873.33398 531.48047 L 872 532 L 869.33398 532.88867 L 868 533.33398 L 865.33398 534.11133 L 864 534.37109 L 862.66602 534.66602 L 860 534.66602 L 858.66602 534.66602 L 856 534.66602 L 853.33398 534.66602 L 852 534.66602 L 850.66602 534.66602 L 848 534.66602 L 846.66602 534.37109 L 845.33398 534.11133 L 842.66602 533.33398 L 840 532.44336 L 837.33398 531.48047 L 834.66602 530.33398 L 833.33398 529.62891 L 832 529 L 830.66602 528.18555 L 829.33398 527.4082 L 826.66602 525.51953 L 825.33398 524.48047 L 824 523.48047 L 821.33398 521.33398 L 819.18555 518.66602 L 818.18555 517.33398 L 816.22266 514.66602 L 815.25781 513.33398 L 813.66602 510.66602 L 813.03711 509.33398 L 812.33398 508 L 811.81445 506.66602 L 811.25781 505.33398 L 810.88867 504 L 810.48047 502.66602 L 809.85156 500 L 809.33398 497.33398 L 809.22266 494.66602 L 808.81445 492 L 808.51953 490.66602 L 808.22266 488 L 808.51953 485.33398 L 808.81445 484 L 809.22266 481.33398 L 809.33398 480 L 809.62891 477.33398 L 809.88867 476 L 810.66602 473.33398 L 811.11133 472 L 811.55664 470.66602 L 812.51953 468 L 813.11133 466.66602 L 813.70312 465.33398 L 814.48047 464 L 815.25781 462.66602 L 817.14844 460 L 818.18555 458.66602 L 819.18555 457.33398 L 821.33398 454.77734 L 824 452.51953 L 825.33398 451.51953 L 828 449.55664 L 829.33398 448.5918 L 832 447 L 834.66602 445.66602 L 836 445.11133 L 837.33398 444.51953 L 840 443.5918 L 841.33398 443.22266 L 842.66602 442.92578 L 845.33398 442.4082 L 848 441.85156 L 850.66602 441.44336 L 852 441.37109 L 854.66602 441.33398 z "
       transform="matrix(0.75000002,0,0,-0.75000002,0,740.00002)"
       id="path14" /><path
       d="m 638,273 v -51 h 7 4 4 2 10 5 3 6 1 11 5 8 4 5 4 5 5 8 v 51 h -6 -1 -10 -8 -2 -3 -6 -1 -4 -6 -2 -5 -4 -1 -4 -5 -5 -6 -13 -5 M 4,272 v -51 h 520 v 51 H 520.944 519 517 398 315 231 4"
       style="fill:#029fe3;fill-opacity:1;fill-rule:nonzero;stroke:none"
       id="path18"
       inkscape:connector-curvature="0" /></g></svg>